<?xml version="1.0" encoding="UTF-8"?>
<svg id="Layer_1" data-name="Layer 1" xmlns="http://www.w3.org/2000/svg" viewBox="0 0 113.22 36.62">
  <defs>
    <style>
      .cls-1 {
        fill: #ffffff;
        stroke-width: 0px;
      }
    </style>
  </defs>
  <path class="cls-1" d="M75.68,9.54c-8.14,0-13.15,6.18-13.15,13.58,0,6.4,3.67,13.49,13.15,13.49,8.6,0,11.05-5.52,12.04-8.61h-4.49c-1.03,0-1.78.41-2.48,1.28-.3.34-1.8,2.05-4.82,2.05-6.12,0-6.21-4.85-6.32-6.52h18.57c.52-7.45-3.42-15.28-12.49-15.28ZM69.6,20.34c0-.52.41-5.48,5.87-5.48,3.62,0,4.94,2.05,5.62,5.48h-11.49Z"/>
  <path class="cls-1" d="M92.55.55v28.96c.06,4.88.95,6.58,7.03,6.58V6.26c-.05-4.81-.98-5.71-7.03-5.71Z"/>
  <path class="cls-1" d="M106.19.55v28.96c.06,4.88.95,6.58,7.03,6.58V6.26c-.05-4.81-.98-5.71-7.03-5.71Z"/>
  <path class="cls-1" d="M54.79,26.11s-1.61-.06-2.22,1.64c-.88,2.42-2.49,3.59-5.22,3.59-4.25,0-5.87-4.05-5.87-8.21,0-3.95,1.67-8.26,6.03-8.26,2.72,0,4.16,1.22,4.78,2.8.34.86.84,1.64,2.4,1.64h4.97c-.38-6.65-6.09-9.76-12.1-9.76-8.86,0-13.13,6.42-13.13,13.89,0,8.36,5.8,13.18,12.98,13.18,6.28,0,11.41-3.15,12.4-10.5h-5Z"/>
  <path class="cls-1" d="M30.48,36.08h-4.49c-2.66,0-3.82-.61-4.91-2.37-1.02-1.63-13.54-21.78-13.54-21.78h-.1v24.16H0V0h4.5C7.91,0,8.51,1.01,9.84,3.15c1.33,2.14,13.11,21.06,13.11,21.06h.1V0h.38c6.54,0,7.04,2.17,7.04,6.28v29.8Z"/>
</svg>